<svg width="159" height="159" viewBox="0 0 159 159" fill="none" xmlns="http://www.w3.org/2000/svg">
<mask id="mask0_25_62" style="mask-type:alpha" maskUnits="userSpaceOnUse" x="-8" y="-4" width="171" height="162">
<path d="M3.24851 157L161 -2.72339H-6.61096V157H3.24851Z" fill="#D9D9D9" stroke="black"/>
</mask>
<g mask="url(#mask0_25_62)">
<circle cx="130.801" cy="28.5371" r="25.5979" fill="white"/>
<circle cx="130.801" cy="79.7326" r="25.5979" fill="white"/>
<circle cx="130.801" cy="130.928" r="25.5979" fill="white"/>
<circle cx="79.6053" cy="28.5371" r="25.5979" fill="white"/>
<circle cx="79.6053" cy="79.7326" r="25.5979" fill="white"/>
<circle cx="79.6053" cy="130.928" r="25.5979" fill="white"/>
<circle cx="28.4096" cy="28.5371" r="25.5979" fill="white"/>
<circle cx="28.4096" cy="79.7326" r="25.5979" fill="white"/>
<circle cx="28.4096" cy="130.928" r="25.5979" fill="white"/>
</g>
<circle cx="130.801" cy="28.5371" r="23.5979" stroke="white" stroke-width="4"/>
<circle cx="130.801" cy="79.7326" r="23.5979" stroke="white" stroke-width="4"/>
<circle cx="130.801" cy="130.928" r="23.5979" stroke="white" stroke-width="4"/>
<circle cx="79.6053" cy="28.5371" r="23.5979" stroke="white" stroke-width="4"/>
<circle cx="79.6053" cy="79.7326" r="23.5979" stroke="white" stroke-width="4"/>
<circle cx="79.6053" cy="130.928" r="23.5979" stroke="white" stroke-width="4"/>
<circle cx="28.4096" cy="28.5371" r="23.5979" stroke="white" stroke-width="4"/>
<circle cx="28.4096" cy="79.7326" r="23.5979" stroke="white" stroke-width="4"/>
<circle cx="28.4096" cy="130.928" r="23.5979" stroke="white" stroke-width="4"/>
</svg>
