<svg width="160" height="160" viewBox="0 0 160 160" fill="none" xmlns="http://www.w3.org/2000/svg">
<path fill-rule="evenodd" clip-rule="evenodd" d="M80.4524 143.787C116.135 143.787 145.062 114.861 145.062 79.1777C145.062 43.4948 116.135 14.5681 80.4524 14.5681C44.7695 14.5681 15.8428 43.4948 15.8428 79.1777C15.8428 114.861 44.7695 143.787 80.4524 143.787ZM80.4524 121.132C103.623 121.132 122.406 102.348 122.406 79.1777C122.406 56.0072 103.623 37.2239 80.4524 37.2239C57.2819 37.2239 38.4986 56.0072 38.4986 79.1777C38.4986 102.348 57.2819 121.132 80.4524 121.132Z" fill="white"/>
<path d="M114.786 20.5419C114.786 29.7729 107.302 37.2561 98.0714 37.2561C88.8404 37.2561 81.3572 29.7729 81.3572 20.5419V3.82769H98.0714C107.302 3.82769 114.786 11.3109 114.786 20.5419Z" fill="white" stroke="white" stroke-width="1.80968"/>
<path d="M46.1191 139.688C46.1191 130.457 53.6023 122.973 62.8333 122.973C72.0643 122.973 79.5476 130.457 79.5476 139.688L79.5476 156.402L62.8333 156.402C53.6024 156.402 46.1191 148.919 46.1191 139.688Z" fill="white" stroke="white" stroke-width="1.80968"/>
<path d="M62.6053 13.7131C69.1326 20.2404 69.1326 30.8233 62.6053 37.3506C56.078 43.8779 45.4951 43.8779 38.9678 37.3506L27.1491 25.5318L38.9678 13.7131C45.4951 7.1858 56.078 7.1858 62.6053 13.7131Z" fill="white" stroke="white" stroke-width="1.80968"/>
<path d="M98.2995 146.516C91.7722 139.989 91.7722 129.406 98.2995 122.879C104.827 116.352 115.41 116.352 121.937 122.879L133.756 134.698L121.937 146.516C115.41 153.044 104.827 153.044 98.2995 146.516Z" fill="white" stroke="white" stroke-width="1.80968"/>
<path d="M14.0507 97.9619C20.5781 91.4346 31.1609 91.4346 37.6882 97.9619C44.2155 104.489 44.2155 115.072 37.6882 121.599L25.8695 133.418L14.0508 121.599C7.52345 115.072 7.52345 104.489 14.0507 97.9619Z" fill="white" stroke="white" stroke-width="1.80968"/>
<path d="M146.854 62.2676C140.327 68.7949 129.744 68.7949 123.217 62.2676C116.689 55.7403 116.689 45.1575 123.217 38.6302L135.035 26.8115L146.854 38.6302C153.381 45.1575 153.381 55.7403 146.854 62.2676Z" fill="white" stroke="white" stroke-width="1.80968"/>
<path d="M20.8795 45.7815C30.1105 45.7815 37.5937 53.2647 37.5937 62.4957C37.5937 71.7267 30.1105 79.2099 20.8795 79.2099L4.16534 79.2099L4.16534 62.4957C4.16534 53.2647 11.6485 45.7815 20.8795 45.7815Z" fill="white" stroke="white" stroke-width="1.80968"/>
<path d="M140.025 114.448C130.794 114.448 123.311 106.965 123.311 97.7338C123.311 88.5028 130.794 81.0196 140.025 81.0196L156.739 81.0196L156.739 97.7338C156.739 106.965 149.256 114.448 140.025 114.448Z" fill="white" stroke="white" stroke-width="1.80968"/>
</svg>
