<svg width="159" height="160" viewBox="0 0 159 160" fill="none" xmlns="http://www.w3.org/2000/svg">
<path fill-rule="evenodd" clip-rule="evenodd" d="M79.5 144.724C115.183 144.724 144.11 115.798 144.11 80.1148C144.11 44.4318 115.183 15.5051 79.5 15.5051C43.8171 15.5051 14.8904 44.4318 14.8904 80.1148C14.8904 115.798 43.8171 144.724 79.5 144.724ZM79.5 122.069C102.67 122.069 121.454 103.285 121.454 80.1147C121.454 56.9443 102.67 38.1609 79.5 38.1609C56.3296 38.1609 37.5462 56.9443 37.5462 80.1147C37.5462 103.285 56.3296 122.069 79.5 122.069Z" fill="white"/>
<path fill-rule="evenodd" clip-rule="evenodd" d="M29.1274 100.422L20.4687 124.483L34.4863 138.501L58.2409 130.093L69.1318 153.229H88.9557L99.8077 130.487L123.869 139.146L137.886 125.128L129.38 101.095L152.615 89.5705V69.7466L129.871 58.8938L137.886 35.1011L123.869 21.0835L100.112 29.4918L88.9557 7H69.1318L58.279 29.7441L34.4863 21.7286L20.4687 35.7462L28.7727 59.2081L6.38525 69.7466V89.5705L29.1274 100.422ZM79.5 122.069C102.67 122.069 121.454 103.285 121.454 80.1147C121.454 56.9443 102.67 38.1609 79.5 38.1609C56.3295 38.1609 37.5461 56.9443 37.5461 80.1147C37.5461 103.285 56.3295 122.069 79.5 122.069Z" fill="white"/>
</svg>
