<svg width="138" height="72" viewBox="0 0 138 72" fill="none" xmlns="http://www.w3.org/2000/svg">
<path d="M62.8653 38.3931C60.8353 39.9631 59.5152 41.7531 58.3352 43.6331C55.7652 47.7331 54.2952 52.2931 52.8852 56.8731C52.8352 57.0231 52.7553 57.2131 52.8053 57.3331C53.4753 59.1231 52.5453 60.5731 51.8753 62.0931C51.2853 63.4231 50.2453 64.1031 48.9753 63.7931C47.7453 63.4931 47.0753 62.3631 47.1653 60.9331C47.3653 57.9531 48.2252 55.1131 49.2152 52.3431C50.3752 49.1231 51.4253 45.8431 53.1753 42.8531C53.9853 41.4731 54.7753 40.0831 55.8053 38.8631C58.4753 35.6931 61.0452 32.4231 64.6452 30.1831C65.6152 29.5831 66.5553 29.3431 67.5653 29.8931C68.5953 30.4531 68.9353 31.4231 68.8153 32.5431C68.4853 35.6031 68.1052 38.6531 67.2052 41.6131C66.4952 43.9631 66.4853 46.4231 66.1253 48.8331C66.0753 49.1431 66.1053 49.4631 66.3653 49.8331C67.2853 49.0431 67.8453 48.0431 68.3653 47.0531C69.4053 45.0631 70.8452 43.3331 72.0752 41.4731C72.7252 40.4831 73.7952 39.6931 74.8352 39.0531C76.8252 37.8331 79.6053 39.0931 79.2453 41.5331C79.2153 41.7631 79.1752 42.0031 79.5252 42.3231C80.1152 41.2731 80.9553 40.4331 81.6653 39.4831C82.5753 38.2631 83.7353 37.8031 85.2253 38.1131C86.3353 38.3431 87.3853 38.2531 88.4953 37.8231C97.2453 34.4431 105.845 30.7331 114.405 26.9231C119.515 24.6531 124.585 22.3131 129.615 19.8931C131.165 19.1531 132.665 18.3731 133.925 17.1531C134.865 16.2531 136.235 16.3331 137.185 17.2131C138.055 18.0331 138.145 19.4231 137.365 20.4931C136.205 22.0631 134.495 22.9431 132.825 23.7231C129.745 25.1631 126.805 26.8831 123.675 28.1831C116.035 31.3331 108.675 35.1031 100.925 38.0131C97.0153 39.4831 93.3353 41.5431 89.2853 42.7231C88.3153 43.0031 87.3653 43.3831 86.3653 43.1031C85.2553 42.7931 84.5953 43.2931 84.1053 44.1431C83.2253 45.6631 81.9953 46.8431 80.6553 47.9231C78.9253 49.3231 76.4853 49.1631 75.1153 47.4531C74.4153 46.5831 74.0953 46.9431 73.6853 47.6131C72.3753 49.7531 71.1653 51.9631 69.4753 53.8531C67.9453 55.5631 65.3053 55.7131 63.6153 54.1731C61.7353 52.4731 61.0752 50.3931 61.3952 47.9231C61.7652 45.0731 61.9253 42.1931 62.7853 39.4231C62.8453 39.2031 62.8253 38.9531 62.8653 38.3931ZM62.8453 38.6331C62.8153 38.5831 62.7852 38.5331 62.7652 38.4831C62.7452 38.5131 62.6952 38.5431 62.6952 38.5531C62.7052 38.6031 62.7452 38.6531 62.7652 38.7031C62.7952 38.6831 62.8153 38.6531 62.8453 38.6331Z" fill="#DB9100"/>
<path d="M32.7153 63.043C32.8553 59.343 33.0553 55.873 33.1053 52.403C33.2153 43.703 33.2553 34.993 33.3053 26.293C33.3053 25.593 33.7253 24.553 33.2053 24.273C32.5853 23.933 31.8753 24.783 31.2553 25.173C23.7653 29.873 16.6853 35.133 9.99532 40.903C7.95532 42.663 6.46532 45.0031 4.87532 47.1931C4.45532 47.7731 3.91533 48.123 3.25533 48.353C1.50533 48.943 -0.104671 47.713 0.005329 45.853C0.085329 44.513 0.675327 43.4231 1.56533 42.4431C5.38533 38.2131 9.7653 34.6131 14.2853 31.1931C19.8853 26.9531 25.5753 22.8331 31.6553 19.2631C38.6353 15.1731 45.9653 11.8331 53.3053 8.50305C55.8853 7.33305 58.4153 6.04301 61.0053 4.89301C64.3653 3.40301 67.7553 1.99304 71.1353 0.553042C71.8553 0.243042 72.6053 0.14303 73.3653 0.35303C74.4753 0.66303 75.1653 1.40306 75.2253 2.57306C75.2853 3.74306 74.6953 4.56303 73.6053 4.97303C69.3853 6.55303 65.2153 8.26304 61.1353 10.173C54.5253 13.273 47.9053 16.373 41.2953 19.483C40.3253 19.943 39.1453 20.283 38.5053 21.043C37.8653 21.803 38.3653 23.083 38.3553 24.103C38.3353 26.493 38.1553 28.883 38.1553 31.273C38.1553 40.343 38.1253 49.403 37.7453 58.463C37.6453 60.893 37.4553 63.3231 37.8353 65.7531C37.9353 66.3931 38.0953 66.933 38.5953 67.433C39.7853 68.633 39.7553 70.4031 38.6453 71.3831C37.5353 72.3631 36.2253 72.153 34.9553 70.913C33.8053 69.783 33.2553 68.453 33.1253 66.873C33.0053 65.523 32.8353 64.173 32.7153 63.043Z" fill="#DB9000"/>
</svg>
